#!OML:ASF H:\MichaelJackson\Top Level 1\Subject 1\Session 1\male.ASF
:FULLY-SPECIFIED
:DEGREES
861
root 4.17222 16.5344 16.9659 -339.767 170.144 8.74136
lowerback 0.898177 2.44407 -0.145365
upperback -1.2957 3.25427 -0.715043
thorax -1.79672 1.6262 -0.729911
lowerneck -3.39288 -11.5585 -3.5665
upperneck 0.156798 -15.411 7.70818
head 1.57587 -7.58587 2.57446
rclavicle -1.23246e-014 -3.65764e-014
rhumerus -38.5444 49.1185 -118.956
rradius 102.037
rwrist 4.3646
rhand -20.3301 -19.0625
rfingers 7.12502
rthumb 6.0211 311.043
lclavicle -1.23246e-014 -3.65764e-014
lhumerus -53.2241 -23.4563 114.712
lradius 71.7914
lwrist 4.84481
lhand -0.316607 7.90163
lfingers 7.12502
lthumb 25.2871 36.2456
rfemur -12.7761 -31.2729 26.4694
rtibia 60.5168
rfoot 20.5515 -5.99029
rtoes 2.25719
lfemur -39.4805 27.2041 -33.4158
ltibia 46.1982
lfoot -33.7774 13.8061
ltoes 23.2246
862
root 4.0834 16.56 17.0789 -339.378 166.584 9.40333
lowerback 0.692502 2.51063 0.115555
upperback -1.36536 3.34904 -0.72625
thorax -1.73626 1.67071 -0.880572
lowerneck -3.39404 -11.5468 -3.43223
upperneck 0.346342 -15.414 7.77022
head 1.63238 -7.5838 2.5668
rclavicle 1.51076e-014 -1.59028e-015
rhumerus -38.5931 48.7743 -119.299
rradius 101.885
rwrist 4.77081
rhand -21.4931 -19.7254
rfingers 7.12502
rthumb 4.89824 310.351
lclavicle 1.51076e-014 -1.59028e-015
lhumerus -53.7676 -23.6097 114.793
lradius 72.1843
lwrist 4.16786
lhand 1.52916 8.11864
lfingers 7.12502
lthumb 27.0542 36.2006
rfemur -12.3819 -31.6287 26.3178
rtibia 59.703
rfoot 18.9878 -5.00656
rtoes -1.28031
lfemur -39.5004 26.2922 -32.4152
ltibia 46.3263
lfoot -33.1146 12.9058
ltoes 24.3786
863
root 3.99499 16.5838 17.1884 -338.928 162.944 9.97954
lowerback 0.460585 2.58567 0.266885
upperback -1.44865 3.45265 -0.783497
thorax -1.67772 1.72112 -1.01602
lowerneck -3.35203 -11.5241 -3.33
upperneck 0.488224 -15.3983 7.81004
head 1.66546 -7.5745 2.56236
rclavicle -1.23246e-014 -2.38542e-014
rhumerus -38.6618 48.462 -119.686
rradius 101.724
rwrist 5.33999
rhand -22.3188 -20.1928
rfingers 7.12502
rthumb 4.1009 309.867
lclavicle -1.23246e-014 -2.38542e-014
lhumerus -54.2517 -23.6428 114.771
lradius 72.4738
lwrist 3.83115
lhand 3.23409 8.32929
lfingers 7.12502
lthumb 28.6842 36.1469
rfemur -12.2343 -31.7947 26.072
rtibia 59.2033
rfoot 17.5152 -4.15081
rtoes -4.15668
lfemur -39.4697 25.3222 -31.5102
ltibia 46.3681
lfoot -32.4543 11.9828
ltoes 25.6471
864
root 3.90694 16.6074 17.2938 -338.451 159.205 10.4748
lowerback 0.194137 2.67153 0.283411
upperback -1.52433 3.56858 -0.86663
thorax -1.59758 1.77961 -1.10045
lowerneck -3.26402 -11.4884 -3.27362
upperneck 0.555586 -15.359 7.82681
head 1.66664 -7.55648 2.56422
rclavicle -1.27222e-014 2.70347e-014
rhumerus -38.6885 48.1694 -120.019
rradius 101.596
rwrist 5.69985
rhand -22.6701 -20.3007
rfingers 7.12502
rthumb 3.76169 309.753
lclavicle -1.27222e-014 2.70347e-014
lhumerus -54.6281 -23.5689 114.669
lradius 72.6539
lwrist 3.94582
lhand 4.82411 8.66393
lfingers 7.12502
lthumb 30.2022 36.2144
rfemur -12.2965 -31.7578 25.7316
rtibia 58.953
rfoot 16.3488 -3.59439
rtoes -5.72935
lfemur -39.4027 24.3974 -30.7526
ltibia 46.3142
lfoot -31.8097 11.1508
ltoes 26.9965
865
root 3.81911 16.6318 17.3945 -338.007 155.342 10.9209
lowerback -0.0493389 2.77687 0.189319
upperback -1.5721 3.70913 -0.966978
thorax -1.50665 1.8517 -1.14079
lowerneck -3.15553 -11.4381 -3.24409
upperneck 0.553395 -15.2941 7.80499
head 1.63866 -7.52825 2.56273
rclavicle -1.0138e-013 -9.54166e-015
rhumerus -38.6672 47.9156 -120.274
rradius 101.5
rwrist 5.84303
rhand -22.6306 -20.1183
rfingers 7.12502
rthumb 3.79981 309.936
lclavicle -1.0138e-013 -9.54166e-015
lhumerus -54.8842 -23.4166 114.498
lradius 72.7483
lwrist 4.56816
lhand 6.35192 9.25462
lfingers 7.12502
lthumb 31.6586 36.5284
rfemur -12.463 -31.5153 25.2809
rtibia 58.868
rfoot 15.6715 -3.4871
rtoes -5.45611
lfemur -39.2646 23.6478 -30.1484
ltibia 46.1745
lfoot -31.1773 10.5162
ltoes 28.2931
866
root 3.73215 16.6578 17.4899 -337.636 151.369 11.3446
lowerback -0.25228 2.89876 0.00747101
upperback -1.57254 3.87104 -1.07425
thorax -1.39477 1.93529 -1.13942
lowerneck -3.03141 -11.3734 -3.24952
upperneck 0.486901 -15.2045 7.76307
head 1.58674 -7.48985 2.56446
rclavicle -2.70347e-014 -2.38542e-014
rhumerus -38.5838 47.7212 -120.433
rradius 101.44
rwrist 5.69467
rhand -22.2918 -19.7294
rfingers 7.12502
rthumb 4.12696 310.331
lclavicle -2.70347e-014 -2.38542e-014
lhumerus -55.0216 -23.216 114.266
lradius 72.7884
lwrist 5.69982
lhand 7.86418 10.1163
lfingers 7.12502
lthumb 33.0979 37.0958
rfemur -12.6465 -31.1087 24.7298
rtibia 58.8587
rfoot 15.5795 -3.88536
rtoes -3.43674
lfemur -39.0289 23.1202 -29.6702
ltibia 45.9734
lfoot -30.5662 10.111
ltoes 29.4171
